<svg xmlns="http://www.w3.org/2000/svg" width="1280" height="720" viewBox="0 0 1280 720" role="img" aria-label="QualityPilot Vue API testing center">
  <rect width="1280" height="720" fill="#f4f7fb"/>
  <rect x="24" y="24" width="220" height="672" rx="10" fill="#111827"/>
  <text x="52" y="70" fill="#f8fafc" font-family="Arial, Microsoft YaHei" font-size="24" font-weight="700">QualityPilot</text>
  <text x="52" y="96" fill="#9fb2d1" font-family="Arial, Microsoft YaHei" font-size="13">AI Test Platform</text>
  <rect x="44" y="138" width="160" height="38" rx="8" fill="#1f6feb"/>
  <text x="66" y="163" fill="#ffffff" font-family="Arial, Microsoft YaHei" font-size="15" font-weight="700">API 测试</text>
  <text x="52" y="220" fill="#cbd7ea" font-family="Arial, Microsoft YaHei" font-size="15">测试用例</text>
  <text x="52" y="270" fill="#cbd7ea" font-family="Arial, Microsoft YaHei" font-size="15">自动化执行</text>
  <text x="52" y="320" fill="#cbd7ea" font-family="Arial, Microsoft YaHei" font-size="15">测试报告</text>
  <text x="52" y="370" fill="#cbd7ea" font-family="Arial, Microsoft YaHei" font-size="15">AI 测试助手</text>
  <text x="52" y="420" fill="#cbd7ea" font-family="Arial, Microsoft YaHei" font-size="15">知识库管理</text>

  <text x="282" y="64" fill="#172033" font-family="Arial, Microsoft YaHei" font-size="28" font-weight="700">API 测试中心</text>
  <text x="282" y="92" fill="#566579" font-family="Arial, Microsoft YaHei" font-size="15">接口目录、请求样例、断言、pytest 目标和最近执行状态集中展示。</text>

  <rect x="282" y="122" width="230" height="540" rx="10" fill="#ffffff" stroke="#d8e1ef"/>
  <text x="306" y="158" fill="#172033" font-family="Arial, Microsoft YaHei" font-size="18" font-weight="700">接口目录</text>
  <rect x="306" y="184" width="180" height="34" rx="8" fill="#eff6ff" stroke="#1f6feb"/>
  <text x="322" y="207" fill="#1d4ed8" font-family="Arial, Microsoft YaHei" font-size="14" font-weight="700">全部接口</text>
  <text x="322" y="260" fill="#26364d" font-family="Arial, Microsoft YaHei" font-size="15">登录鉴权</text>
  <text x="346" y="292" fill="#6b778c" font-family="Arial, Microsoft YaHei" font-size="13">POST /api/login</text>
  <text x="322" y="342" fill="#26364d" font-family="Arial, Microsoft YaHei" font-size="15">文件上传</text>
  <text x="346" y="374" fill="#6b778c" font-family="Arial, Microsoft YaHei" font-size="13">POST /api/upload</text>

  <rect x="536" y="122" width="350" height="540" rx="10" fill="#ffffff" stroke="#d8e1ef"/>
  <text x="560" y="158" fill="#172033" font-family="Arial, Microsoft YaHei" font-size="18" font-weight="700">接口列表</text>
  <rect x="560" y="190" width="300" height="128" rx="10" fill="#f8fbff" stroke="#1f6feb"/>
  <rect x="580" y="214" width="58" height="28" rx="7" fill="#dbeafe"/>
  <text x="596" y="234" fill="#1d4ed8" font-family="Arial" font-size="13" font-weight="700">POST</text>
  <text x="650" y="235" fill="#172033" font-family="Arial, Microsoft YaHei" font-size="17" font-weight="700">登录接口</text>
  <text x="580" y="268" fill="#52627a" font-family="Consolas, Microsoft YaHei" font-size="14">/api/login</text>
  <text x="580" y="296" fill="#566579" font-family="Arial, Microsoft YaHei" font-size="13">关联用例 TC-API-LOGIN-001 · pytest: tests/automation</text>
  <rect x="560" y="338" width="300" height="118" rx="10" fill="#ffffff" stroke="#d8e1ef"/>
  <rect x="580" y="362" width="58" height="28" rx="7" fill="#dbeafe"/>
  <text x="596" y="382" fill="#1d4ed8" font-family="Arial" font-size="13" font-weight="700">POST</text>
  <text x="650" y="383" fill="#172033" font-family="Arial, Microsoft YaHei" font-size="17" font-weight="700">文件上传接口</text>
  <text x="580" y="416" fill="#52627a" font-family="Consolas, Microsoft YaHei" font-size="14">/api/upload</text>

  <rect x="910" y="122" width="330" height="540" rx="10" fill="#ffffff" stroke="#d8e1ef"/>
  <text x="934" y="158" fill="#172033" font-family="Arial, Microsoft YaHei" font-size="18" font-weight="700">接口详情</text>
  <rect x="934" y="188" width="78" height="30" rx="8" fill="#dbeafe"/>
  <text x="956" y="209" fill="#1d4ed8" font-family="Arial" font-size="14" font-weight="700">POST</text>
  <text x="1024" y="210" fill="#172033" font-family="Consolas, Microsoft YaHei" font-size="16" font-weight="700">/api/login</text>
  <text x="934" y="262" fill="#43536b" font-family="Arial, Microsoft YaHei" font-size="15" font-weight="700">Headers</text>
  <rect x="934" y="276" width="270" height="48" rx="8" fill="#0f172a"/>
  <text x="952" y="305" fill="#e2e8f0" font-family="Consolas" font-size="13">Content-Type: application/json</text>
  <text x="934" y="362" fill="#43536b" font-family="Arial, Microsoft YaHei" font-size="15" font-weight="700">断言</text>
  <text x="952" y="394" fill="#26364d" font-family="Arial, Microsoft YaHei" font-size="14">200 响应包含 token</text>
  <text x="952" y="426" fill="#26364d" font-family="Arial, Microsoft YaHei" font-size="14">401 返回 invalid_credentials</text>
  <text x="952" y="458" fill="#26364d" font-family="Arial, Microsoft YaHei" font-size="14">响应不泄露密码字段</text>
  <rect x="934" y="520" width="270" height="52" rx="8" fill="#dcfce7"/>
  <text x="956" y="552" fill="#166534" font-family="Arial, Microsoft YaHei" font-size="15" font-weight="700">最近状态：自动化已接入</text>
</svg>
